<svg width="12" height="11" viewBox="0 0 12 11" fill="none" xmlns="http://www.w3.org/2000/svg">
<rect x="1" y="0.5" width="10" height="10" rx="5" fill="white"/>
<path d="M7.85617 3.60581C7.94421 3.52199 8.06137 3.47566 8.18293 3.47658C8.30448 3.4775 8.42093 3.5256 8.50769 3.61074C8.59446 3.69589 8.64475 3.8114 8.64797 3.93292C8.65118 4.05444 8.60706 4.17246 8.52492 4.26206L6.03117 7.38081C5.98829 7.427 5.93653 7.46407 5.879 7.48979C5.82147 7.51552 5.75934 7.52938 5.69632 7.53055C5.63331 7.53172 5.57071 7.52016 5.51226 7.49658C5.45382 7.473 5.40073 7.43788 5.35617 7.39331L3.70242 5.73956C3.65636 5.69665 3.61942 5.6449 3.5938 5.5874C3.56818 5.5299 3.55441 5.46783 3.5533 5.40489C3.55219 5.34195 3.56376 5.27943 3.58734 5.22107C3.61091 5.1627 3.646 5.10968 3.69052 5.06517C3.73503 5.02065 3.78805 4.98556 3.84642 4.96199C3.90478 4.93841 3.9673 4.92683 4.03024 4.92794C4.09318 4.92905 4.15525 4.94283 4.21275 4.96845C4.27025 4.99407 4.322 5.03101 4.36492 5.07706L5.67367 6.38519L7.84429 3.61956C7.8482 3.61475 7.85237 3.61016 7.85679 3.60581H7.85617Z" fill="#0672E5"/>
</svg>
