<svg width="24" height="25" viewBox="0 0 24 25" fill="none" xmlns="http://www.w3.org/2000/svg">
<path d="M7 8.49756C8.65685 8.49756 10 7.15441 10 5.49756C10 3.8407 8.65685 2.49756 7 2.49756C5.34315 2.49756 4 3.8407 4 5.49756C4 7.15441 5.34315 8.49756 7 8.49756Z" stroke="#394357" stroke-width="1.5"/>
<path d="M10 12.4976H5.898C5.16692 12.4978 4.46108 12.7649 3.91308 13.2488C3.36509 13.7328 3.01265 14.4001 2.922 15.1256L2.281 20.2496C2.24583 20.531 2.27092 20.8167 2.3546 21.0877C2.43829 21.3587 2.57865 21.6088 2.76638 21.8214C2.9541 22.034 3.1849 22.2042 3.44345 22.3208C3.70199 22.4374 3.98238 22.4976 4.266 22.4976H9M21.719 20.2496L21.079 15.1256C20.9883 14.3998 20.6356 13.7321 20.0872 13.2482C19.5388 12.7642 18.8324 12.4973 18.101 12.4976H15.897C15.1659 12.4978 14.4601 12.7649 13.9121 13.2488C13.3641 13.7328 13.0117 14.4001 12.921 15.1256L12.28 20.2496C12.2448 20.5311 12.2699 20.8168 12.3537 21.0879C12.4374 21.359 12.5779 21.6091 12.7657 21.8217C12.9535 22.0343 13.1845 22.2046 13.4431 22.3211C13.7018 22.4376 13.9823 22.4978 14.266 22.4976H19.734C20.0176 22.4976 20.298 22.4374 20.5566 22.3208C20.8151 22.2042 21.0459 22.034 21.2336 21.8214C21.4214 21.6088 21.5617 21.3587 21.6454 21.0877C21.7291 20.8167 21.7542 20.531 21.719 20.2496Z" stroke="#394357" stroke-width="1.5" stroke-linecap="round" stroke-linejoin="round"/>
<path d="M17 8.49756C18.6569 8.49756 20 7.15441 20 5.49756C20 3.8407 18.6569 2.49756 17 2.49756C15.3431 2.49756 14 3.8407 14 5.49756C14 7.15441 15.3431 8.49756 17 8.49756Z" stroke="#394357" stroke-width="1.5"/>
</svg>
