<svg width="23" height="20" viewBox="0 0 23 20" fill="none" xmlns="http://www.w3.org/2000/svg">
<path fill-rule="evenodd" clip-rule="evenodd" d="M5.6927 0.331885C1.82787 1.57619 0.104013 5.79547 1.39976 9.82053C2.05729 11.7159 3.12662 13.4195 4.53157 14.8171C6.45891 16.689 8.57631 18.3362 10.8525 19.7359L11.1109 19.8906C11.3585 20.0389 11.6682 20.0362 11.9132 19.8839L12.1545 19.734C14.4275 18.3362 16.5449 16.689 18.4656 14.8236C19.8772 13.4195 20.9466 11.7159 21.5986 9.83706C22.899 5.79791 21.1681 1.57663 17.3021 0.331949L17.0224 0.248664C15.2499 -0.238852 13.3663 0.00136958 11.7784 0.90037L11.4962 1.06768L11.2189 0.901296C9.54406 -0.0490094 7.54248 -0.263125 5.6927 0.331885ZM10.8413 2.47813L11.0485 2.62667C11.3214 2.82217 11.6898 2.81829 11.9586 2.61706C13.3586 1.56897 15.1705 1.26397 16.8303 1.79647C19.8257 2.76084 21.1888 6.08517 20.138 9.34943C19.5681 10.9912 18.6246 12.4943 17.3856 13.7268L16.8298 14.2548C15.3323 15.6465 13.7129 16.9063 11.9934 18.0164L11.501 18.3261L11.6512 18.4208C9.47913 17.085 7.45097 15.5072 5.61104 13.7203C4.37865 12.4943 3.4352 10.9912 2.85972 9.33301C1.81342 6.08207 3.17066 2.76008 6.16442 1.79622C7.74524 1.28773 9.46871 1.53984 10.8413 2.47813Z" fill="#394357"/>
</svg>
