<svg width="136" height="30" viewBox="0 0 136 30" fill="none" xmlns="http://www.w3.org/2000/svg">
<g clip-path="url(#clip0_1_554)">
<path d="M28.2926 28.3837C27.3083 27.149 26.5331 25.6159 26.641 24.0091C27.0632 23.1072 27.7158 22.3209 28.0795 21.386C29.6245 17.9989 29.763 14.0162 28.4737 10.5279C26.4998 4.94366 20.7326 0.826836 14.6991 1.03458C9.40342 0.845244 4.24894 3.97067 1.76359 8.54244C-0.744391 13.059 -0.580566 18.9233 2.27505 23.2505C4.41276 26.6323 8.04621 29.0267 12.0153 29.7327C15.068 30.2653 18.3086 29.88 21.0909 28.5073C21.4905 28.3232 21.8701 28.0708 22.311 27.9971C23.162 28.2969 23.8413 28.9622 24.7257 29.195C25.722 29.4632 26.7742 29.6907 27.8064 29.5697C28.2579 29.5171 28.5896 29.0871 28.459 28.6572C28.4297 28.5586 28.3778 28.4665 28.2939 28.3837H28.2926Z" fill="url(#paint0_linear_1_554)"/>
<path d="M18.483 21.0362C17.9236 21.0362 17.4707 21.4938 17.4707 22.0565C17.4707 22.6193 17.9236 23.0769 18.483 23.0769C19.0424 23.0769 19.4939 22.6193 19.4939 22.0565C19.4939 21.4938 19.041 21.0362 18.483 21.0362Z" fill="white"/>
<path d="M13.5572 21.0362C12.9978 21.0362 12.5449 21.4938 12.5449 22.0565C12.5449 22.6193 12.9978 23.0769 13.5572 23.0769C14.1166 23.0769 14.5681 22.6193 14.5681 22.0565C14.5681 21.4938 14.1152 21.0362 13.5572 21.0362Z" fill="white"/>
<path d="M22.3136 12.9589C22.0698 12.6328 21.6676 12.4448 21.2108 12.4448H10.8285C10.5741 12.4448 10.3371 12.5053 10.1346 12.6131L9.58186 10.7368C9.54457 10.6119 9.45933 10.5054 9.34478 10.4423L6.8075 9.02881C6.56509 8.89337 6.25609 8.97753 6.1189 9.21815C5.98171 9.45745 6.06829 9.7625 6.3107 9.89793L8.6695 11.2115L9.22225 13.0865L10.8911 18.5839L11.1096 19.3189C11.3573 20.1091 12.2084 20.7298 13.0462 20.7298H19.8376C20.1159 20.7298 20.3424 20.5062 20.3424 20.2314C20.3424 19.9566 20.1159 19.7331 19.8376 19.7331H13.0462C12.6799 19.7331 12.2563 19.4399 12.1085 19.1059C12.2776 19.1545 12.4521 19.1835 12.6266 19.1835H19.4167C20.2558 19.1835 21.1055 18.5642 21.3533 17.7726L22.4867 14.1515C22.6213 13.7215 22.5586 13.2863 22.3149 12.9602L22.3136 12.9589Z" fill="white"/>
<path d="M44.7593 19.0112H39.7736L38.9737 21.3411H35.5672L40.4002 8.15326H44.1677L49.0007 21.3411H45.5561L44.7561 19.0112H44.7593ZM43.9228 16.5322L42.2673 11.7046L40.6308 16.5322H43.9228Z" fill="#12151E"/>
<path d="M55.796 13.5257H54.045V21.3411H50.7912V13.5257H49.6112V10.8583H50.7912V10.5569C50.7912 9.26791 51.1649 8.28668 51.914 7.6163C52.663 6.94592 53.7604 6.61151 55.206 6.61151C55.4461 6.61151 55.6242 6.61779 55.7387 6.63035V9.35426C55.1169 9.31658 54.6796 9.4045 54.4251 9.61645C54.1707 9.82997 54.045 10.2115 54.045 10.7625V10.8567H55.796V13.5241V13.5257Z" fill="#12151E"/>
<path d="M62.6446 13.5257H60.8936V21.3411H57.6398V13.5257H56.4598V10.8583H57.6398V10.5569C57.6398 9.26791 58.0135 8.28668 58.7626 7.6163C59.5116 6.94592 60.6089 6.61151 62.0546 6.61151C62.2947 6.61151 62.4728 6.61779 62.5873 6.63035V9.35426C61.9655 9.31658 61.5282 9.4045 61.2737 9.61645C61.0192 9.82997 60.8936 10.2115 60.8936 10.7625V10.8567H62.6446V13.5241V13.5257Z" fill="#12151E"/>
<path d="M66.1937 20.8338C65.3619 20.3958 64.7099 19.7694 64.2344 18.9546C63.7589 18.1413 63.5203 17.1883 63.5203 16.0988C63.5203 15.0092 63.7604 14.0735 64.2439 13.2524C64.7258 12.4329 65.3858 11.8033 66.2223 11.3653C67.0588 10.9273 67.9987 10.7075 69.0388 10.7075C70.0789 10.7075 71.0171 10.9273 71.8553 11.3653C72.6918 11.8033 73.3518 12.4329 73.8336 13.2524C74.3155 14.0735 74.5572 15.0218 74.5572 16.0988C74.5572 17.1758 74.3123 18.124 73.8241 18.9451C73.3359 19.7662 72.6695 20.3942 71.8266 20.8338C70.9822 21.2718 70.0407 21.4916 69.0006 21.4916C67.9605 21.4916 67.0238 21.2734 66.1937 20.8338ZM70.5893 18.0346C71.0267 17.584 71.2462 16.9387 71.2462 16.1003C71.2462 15.262 71.0331 14.6167 70.6084 14.1661C70.1838 13.7155 69.6606 13.4895 69.0388 13.4895C68.417 13.4895 67.8778 13.7124 67.4596 14.1567C67.0413 14.601 66.8314 15.2494 66.8314 16.1003C66.8314 16.9513 67.0381 17.584 67.45 18.0346C67.8619 18.4851 68.3788 18.7112 69.0006 18.7112C69.6224 18.7112 70.152 18.4851 70.5893 18.0346Z" fill="#12151E"/>
<path d="M80.9701 11.2447C81.541 10.9134 82.1755 10.747 82.8737 10.747V14.1476H81.9799C81.1672 14.1476 80.5597 14.3203 80.1526 14.6641C79.7471 15.0079 79.5435 15.6124 79.5435 16.4774V21.3428H76.2897V10.8585H79.5435V12.6059C79.9236 12.0297 80.3991 11.576 80.9701 11.2447Z" fill="#12151E"/>
<path d="M84.4056 13.2448C84.8175 12.4316 85.3788 11.8052 86.0897 11.3671C86.8006 10.9291 87.5926 10.7093 88.4689 10.7093C89.167 10.7093 89.8031 10.8537 90.3804 11.1411C90.9577 11.4299 91.411 11.8177 91.7418 12.306V7.44061H94.9956V21.3412H91.7418V19.8387C91.4364 20.3396 91.0023 20.7399 90.4377 21.0413C89.8731 21.3412 89.2163 21.4919 88.4689 21.4919C87.5942 21.4919 86.8006 21.269 86.0897 20.8247C85.3788 20.3804 84.8175 19.7477 84.4056 18.9281C83.9937 18.1086 83.7869 17.1588 83.7869 16.0818C83.7869 15.0048 83.9921 14.0596 84.4056 13.2448ZM91.0659 14.2025C90.6158 13.7394 90.0671 13.507 89.4199 13.507C88.7726 13.507 88.2239 13.7362 87.7739 14.1931C87.3238 14.65 87.098 15.2795 87.098 16.0802C87.098 16.8809 87.3238 17.5167 87.7739 17.9862C88.2239 18.4556 88.7726 18.6911 89.4199 18.6911C90.0671 18.6911 90.6158 18.4603 91.0659 17.9956C91.5159 17.5324 91.7418 16.8997 91.7418 16.099C91.7418 15.2984 91.5159 14.6657 91.0659 14.2025Z" fill="#12151E"/>
<path d="M104.623 21.3412L101.464 15.9876H99.3714V21.3412H97.6395V8.24756H101.921C102.923 8.24756 103.769 8.41712 104.46 8.75466C105.152 9.09221 105.669 9.55064 106.011 10.1253C106.353 10.7014 106.525 11.3593 106.525 12.0971C106.525 12.9983 106.261 13.7943 105.734 14.4835C105.208 15.1727 104.418 15.6296 103.365 15.8541L106.695 21.3396H104.621L104.623 21.3412ZM99.3714 14.6154H101.921C102.859 14.6154 103.563 14.3877 104.033 13.9293C104.502 13.4724 104.737 12.8617 104.737 12.0971C104.737 11.3326 104.505 10.7203 104.042 10.2932C103.579 9.86778 102.872 9.65426 101.921 9.65426H99.3714V14.6138V14.6154Z" fill="#12151E"/>
<path d="M109.266 9.0372C109.037 8.81112 108.924 8.53637 108.924 8.21139C108.924 7.8864 109.038 7.61009 109.266 7.38558C109.495 7.1595 109.773 7.04803 110.102 7.04803C110.431 7.04803 110.689 7.16107 110.91 7.38558C111.131 7.61166 111.242 7.8864 111.242 8.21139C111.242 8.53637 111.131 8.81269 110.91 9.0372C110.687 9.26328 110.419 9.37474 110.102 9.37474C109.786 9.37474 109.493 9.26171 109.266 9.0372ZM110.94 11.0468V21.3411H109.208V11.0468H110.94Z" fill="#12151E"/>
<path d="M122.054 11.9952C122.841 12.7535 123.234 13.8462 123.234 15.2733V21.3413H121.521V15.5182C121.521 14.4915 121.26 13.7049 120.74 13.1601C120.22 12.6153 119.509 12.3422 118.609 12.3422C117.709 12.3422 116.969 12.6232 116.43 13.1868C115.891 13.7504 115.622 14.57 115.622 15.647V21.3381H113.89V11.0469H115.622V12.5117C115.964 11.9858 116.43 11.5791 117.02 11.2903C117.61 11.003 118.261 10.8585 118.97 10.8585C120.239 10.8585 121.266 11.2369 122.052 11.9952H122.054Z" fill="#12151E"/>
<path d="M132.737 11.4597C133.416 11.8475 133.92 12.3358 134.249 12.9245V11.0468H136V21.5657C136 22.5045 135.796 23.3413 135.391 24.0729C134.985 24.8061 134.405 25.3792 133.65 25.7921C132.894 26.205 132.016 26.4122 131.014 26.4122C129.643 26.4122 128.503 26.0935 127.589 25.4545C126.674 24.8155 126.137 23.9458 125.971 22.8436H127.684C127.875 23.4701 128.268 23.974 128.864 24.3555C129.461 24.737 130.178 24.9286 131.014 24.9286C131.965 24.9286 132.743 24.6334 133.346 24.0462C133.949 23.4575 134.249 22.6317 134.249 21.5672V19.407C133.907 20.0083 133.398 20.5091 132.727 20.9094C132.054 21.3098 131.269 21.5107 130.367 21.5107C129.465 21.5107 128.6 21.2846 127.846 20.8341C127.091 20.3835 126.498 19.7508 126.067 18.9375C125.636 18.1243 125.42 17.1964 125.42 16.1571C125.42 15.1178 125.636 14.1821 126.067 13.3861C126.498 12.5917 127.091 11.9747 127.846 11.5351C128.602 11.0971 129.442 10.8773 130.367 10.8773C131.293 10.8773 132.058 11.0719 132.737 11.4597ZM133.774 14.146C133.456 13.5698 133.028 13.1286 132.489 12.8209C131.949 12.5147 131.356 12.3609 130.709 12.3609C130.062 12.3609 129.472 12.5116 128.939 12.8115C128.406 13.1113 127.982 13.5509 127.664 14.1271C127.347 14.7033 127.188 15.38 127.188 16.1555C127.188 16.9311 127.347 17.6297 127.664 18.2122C127.98 18.7947 128.406 19.239 128.939 19.5467C129.472 19.8544 130.062 20.0067 130.709 20.0067C131.356 20.0067 131.949 19.8528 132.489 19.5467C133.028 19.2405 133.456 18.7947 133.774 18.2122C134.09 17.6297 134.249 16.9499 134.249 16.1744C134.249 15.3988 134.09 14.7221 133.774 14.146Z" fill="#12151E"/>
</g>
<defs>
<linearGradient id="paint0_linear_1_554" x1="24.2009" y1="3.65247" x2="3.32433" y2="39.3488" gradientUnits="userSpaceOnUse">
<stop stop-color="#37B774"/>
<stop offset="0.8" stop-color="#37B774"/>
</linearGradient>
<clipPath id="clip0_1_554">
<rect width="136" height="29" fill="white" transform="translate(0 0.997559)"/>
</clipPath>
</defs>
</svg>
