<svg width="24" height="25" viewBox="0 0 24 25" fill="none" xmlns="http://www.w3.org/2000/svg">
<path fill-rule="evenodd" clip-rule="evenodd" d="M12.0003 2.74756C8.19436 2.74756 4.98398 5.58162 4.51191 9.3582L3.52299 17.2695C3.32533 18.8508 4.55832 20.2476 6.15193 20.2476H7.5126L7.56494 20.3653C8.34391 22.118 10.082 23.2476 12 23.2476C13.918 23.2476 15.6561 22.118 16.4351 20.3653L16.4874 20.2476H17.8487C19.4423 20.2476 20.6753 18.8508 20.4777 17.2695L19.4887 9.3582C19.0167 5.58162 15.8063 2.74756 12.0003 2.74756ZM16.0171 18.7476C16.006 18.7473 15.9948 18.7473 15.9837 18.7476H8.0163C8.00518 18.7473 7.99404 18.7473 7.98289 18.7476H6.15193C5.46057 18.7476 4.92566 18.1416 5.01141 17.4556L6.00033 9.54425C6.37857 6.51831 8.95084 4.24756 12.0003 4.24756C15.0498 4.24756 17.6221 6.51831 18.0003 9.54425L18.9892 17.4556C19.075 18.1416 18.5401 18.7476 17.8487 18.7476H16.0171ZM9.20521 20.2476H14.7948C14.1806 21.1741 13.136 21.7476 12 21.7476C10.864 21.7476 9.8194 21.1741 9.20521 20.2476Z" fill="#394357"/>
</svg>
