<svg width="25" height="24" viewBox="0 0 25 24" fill="none" xmlns="http://www.w3.org/2000/svg">
<path fill-rule="evenodd" clip-rule="evenodd" d="M10.0004 11.1798C10.0004 7.9478 12.6204 5.32774 15.8524 5.32774C19.0845 5.32774 21.7045 7.9478 21.7045 11.1798C21.7045 14.4118 19.0845 17.0319 15.8524 17.0319C12.6204 17.0319 10.0004 14.4118 10.0004 11.1798ZM15.8524 3.67273C11.7064 3.67273 8.34535 7.03377 8.34535 11.1798C8.34535 15.3259 11.7064 18.6869 15.8524 18.6869C17.6439 18.6869 19.2888 18.0594 20.5793 17.0122L22.8149 19.2478C23.1204 19.5533 23.6158 19.5533 23.9214 19.2478C24.2269 18.9422 24.2269 18.4468 23.9214 18.1413L21.6857 15.9056C22.7324 14.6153 23.3595 12.9708 23.3595 11.1798C23.3595 7.03377 19.9985 3.67273 15.8524 3.67273Z" fill="#0D111B"/>
<path d="M1 16L6 16" stroke="#0D111B" stroke-width="1.5" stroke-linecap="round" stroke-linejoin="round"/>
<path d="M1 12L6 12" stroke="#0D111B" stroke-width="1.5" stroke-linecap="round" stroke-linejoin="round"/>
<path d="M1 8L6 8" stroke="#0D111B" stroke-width="1.5" stroke-linecap="round" stroke-linejoin="round"/>
</svg>
